PathFileType	4	(X/Y/Z)	9_1_42_p0_0-183_filt_butterworth.trc
DataRate	CameraRate	NumFrames	NumMarkers	Units	OrigDataRate	OrigDataStartFrame	OrigNumFrames
60.0	60.0	5	27	m	60.0	0	183
Frame#	Time	RHip			RKnee			RAnkle			RBigToe			RSmallToe			RHeel			LHip			LKnee			LAnkle			LBigToe			LSmallToe			LHeel			Neck			Head			Nose			RShoulder			RElbow			RWrist			RThumb			RIndex			RPinky			LShoulder			LElbow			LWrist			LThumb			LIndex			LPinky			
		X1	Y1	Z1	X2	Y2	Z2	X3	Y3	Z3	X4	Y4	Z4	X5	Y5	Z5	X6	Y6	Z6	X7	Y7	Z7	X8	Y8	Z8	X9	Y9	Z9	X10	Y10	Z10	X11	Y11	Z11	X12	Y12	Z12	X13	Y13	Z13	X14	Y14	Z14	X15	Y15	Z15	X16	Y16	Z16	X17	Y17	Z17	X18	Y18	Z18	X19	Y19	Z19	X20	Y20	Z20	X21	Y21	Z21	X22	Y22	Z22	X23	Y23	Z23	X24	Y24	Z24	X25	Y25	Z25	X26	Y26	Z26	X27	Y27	Z27	
0	0.0	0.2734886064968038	0.8592119420223956	0.5483151194215735	0.2702104611343633	0.4242112456020959	0.5398165513194298	0.26737771013493955	-0.016908647351456238	0.6141063477275762	0.2679928370944222	-0.010840969347337241	0.4376695683641149	0.31764151974432164	-0.02543871773649633	0.4840481454538512	0.25845494534810465	-0.07780753339693505	0.6681597816602926	0.07625885218957539	0.8570128477561932	0.5723279587295269	0.08574181458294376	0.40861656225224685	0.5706087833146977	0.09485017890590716	-0.006825665478559853	0.5852348683606398	0.12960585599383337	-0.02077462043469898	0.451194172333366	0.062484702791404535	-0.011425017539154272	0.47449907600164887	0.09934264929117928	-0.04267499522677217	0.6013671930018911	0.18312307984931914	1.369249947137877	0.5877128873989159	0.18838645943649412	1.6322910756189148	0.48870994518757693	0.18117902604572836	1.500503974512647	0.4330021550607477	0.3254493821328269	1.2898259129730834	0.5531680503755612	0.35259145172352474	1.0272439232713475	0.5227198537417477	0.2680506323051285	0.8593209409253328	0.3698956714116898	0.16685377749868763	0.8148434699305	0.3014941655086696	0.169611946472035	0.7866282909157903	0.3207449529115062	0.1950794725956317	0.7281963718044331	0.38344062651818644	0.0496561826275586	1.288408393964924	0.5674750277755394	0.020285162203359346	1.0348720146263823	0.5065383528829245	0.10884356655816364	0.8548207594416409	0.3939351787871307	0.17673787991854958	0.8166860939350233	0.32704126757611257	0.18233311348081943	0.787372982300969	0.32474313568806323	0.17298513177536184	0.7735884947087847	0.3329427579366975	
1	0.0166666666666666	0.27333787807304377	0.8631618453742301	0.5484036105091803	0.2718561212967577	0.42443147393934677	0.5438526674381402	0.2666599250002276	-0.017687188461434182	0.616917098398199	0.26852873205768885	-0.00861913928612159	0.4376197422226194	0.31744644524943993	-0.025152975729422038	0.48401210581226406	0.2594859101860669	-0.07738738684675915	0.6688097725891342	0.07521795304406759	0.8590263960441522	0.5771925669098481	0.08567495215782575	0.41057563046955764	0.5704267476125489	0.0948079512240734	-0.00661439712751298	0.5853416277927848	0.12893124574330228	-0.02464788252856371	0.4556509912195453	0.0653303719184139	-0.005567562259201221	0.4685677922755432	0.09973819664708838	-0.045665448490007345	0.6065573406684238	0.18310174156226813	1.3693296808365445	0.5876763534339691	0.18685532133670527	1.6321547337980726	0.4890242155206979	0.18114069402578467	1.5013710392775461	0.4328591928997052	0.3274169451146641	1.290286929008142	0.553944332965427	0.3526654311843993	1.0270108371078288	0.52287077284038	0.2666067563133665	0.861753663674476	0.36488064999464637	0.16623319576664958	0.8149597906874124	0.3014268710862785	0.16816948554459415	0.7874522347021893	0.31410579722802523	0.1949757757977344	0.7276089448200768	0.3834881079337122	0.05169009255722364	1.288156468891657	0.5690896379191537	0.021763494123146654	1.0353424417207882	0.5052347765953162	0.10889638630663154	0.8533650149174401	0.3939989195152125	0.1757755594360217	0.8161868039303324	0.32235952077602514	0.18092736160735756	0.7894609375470345	0.3196914552631675	0.17191699243008204	0.7732476872558722	0.3309198237134741	
2	0.0333333333333333	0.2732211593538618	0.8660332227357044	0.5483108429775629	0.27304576513327833	0.42446748845664783	0.5471061054595826	0.2660843713699804	-0.018409125872096616	0.619168835156361	0.26886667171102085	-0.007015546285309961	0.43756107302810726	0.3173146679150656	-0.024963386312464815	0.48398941948827096	0.26039567119492324	-0.07715873733381784	0.6693964582169424	0.07454223685441044	0.8603361818163576	0.5807879593514504	0.0856054954769231	0.41187438286476513	0.5703256630520113	0.09477823547838347	-0.006454816459158741	0.5854225457538905	0.1284386145373472	-0.02694954532999745	0.4585708216581281	0.06712199181981979	-0.002255112253904519	0.4646440444478104	0.10009106944930393	-0.04806550261840935	0.6106029488877486	0.18309011644996434	1.3693755959138456	0.5876542149762122	0.18575116081999055	1.6320714735037467	0.48909339995461376	0.18110266383462553	1.5021102297072721	0.43272650982881555	0.3286797277134631	1.2902799178691298	0.5544479628710162	0.35270139143052176	1.0269524933722967	0.5229534430800867	0.26568313268493066	0.8631073907087868	0.3617521924217969	0.16633890134060964	0.8145422670896253	0.3014127240972936	0.16760471564459456	0.7871398200436508	0.31134570280954366	0.1949194518477992	0.7273163165714809	0.3835037549117818	0.052983727384037456	1.287998081377555	0.5701341185563891	0.022793166776089946	1.0354579915572935	0.5049880040014643	0.10893553977220365	0.85254309685958	0.3938577507571907	0.17534661807976992	0.8159510466277349	0.31957212088883336	0.18000832828596813	0.790727198258504	0.31652396703083685	0.17151436577993207	0.7729391337148899	0.3301671520807857	
3	0.05	0.27313603953131627	0.8679266883771884	0.548070292345925	0.27382431930932544	0.42435359409459905	0.5496257774117952	0.2656399589103241	-0.01907507885892564	0.6209056238402163	0.26903751962076494	-0.005988209753707355	0.43750261740105545	0.317234435849002	-0.024853763491277124	0.4839794267331391	0.2611913557383111	-0.07710210888687462	0.6699223402879337	0.07419626914576184	0.8610079700385564	0.5832359339724207	0.08553638163986875	0.41257600019455126	0.5702982605435858	0.09475998563610259	-0.006342568732811596	0.5854795004245552	0.12810102726949615	-0.027992423179343296	0.4602093220928686	0.06805857284799738	-0.0010137142700657742	0.46234303761011175	0.10040178013293787	-0.04992470435608168	0.613601629304258	0.18308597744786867	1.3693946807297566	0.5876436174199933	0.1849845434969793	1.632041503393464	0.4888764391705088	0.18106469562459498	1.5027261354295711	0.43260430767300195	0.3293686709438254	1.289913713548434	0.5547282697936546	0.35270915406417436	1.027011519129611	0.5229857247346398	0.26518025892170366	0.8636423629097114	0.3601332296027385	0.16696646772408152	0.8137491012683505	0.3014424353376287	0.16771282044457203	0.786065966778479	0.31154888467974073	0.1948943844163082	0.7273080545058963	0.3834769171924774	0.05367848276434353	1.287914731093327	0.570716236631271	0.023439033351739837	1.035310259598978	0.505520001455567	0.10895847256525308	0.8522440598483427	0.39359272385492405	0.17532656940007305	0.81592760162187	0.31828140185286313	0.17949114181776651	0.7913483013271769	0.3148751621964381	0.1716133396671845	0.7726938010526139	0.3303866482293335	
4	0.0666666666666666	0.27308010779746533	0.8689428565690517	0.5477154341334699	0.2742367104902992	0.4241240957938004	0.5514605953228163	0.26531559728738485	-0.019685666697402723	0.6221715302879186	0.2690721393532678	-0.005495149100118328	0.4374534319619408	0.31719399715905283	-0.024807921271511643	0.4839814677981357	0.26188009117986794	-0.0771980255346932	0.6703899205463246	0.07414461544327966	0.8611075256764962	0.5846582886908461	0.08547054774629567	0.4127436632155976	0.570337270997773	0.09475215566449596	-0.006273299207785826	0.585514369985377	0.12789154883327705	-0.02808933041694328	0.46082215096752105	0.06833912535532181	-0.001369415054486095	0.46127997685410843	0.10067084113310219	-0.05129260044712803	0.6156509935623452	0.18308709749144203	1.3693939236442525	0.5876417061596607	0.1844660349783008	1.6320650321247518	0.48833227384956734	0.18102654954803707	1.5032233460721889	0.4324927882571873	0.32961471582035246	1.289297150038443	0.5548345834346682	0.3526985406876394	1.0271305414446317	0.5229854780778107	0.264998632525568	0.8636188211586954	0.35964669244706826	0.16791146842057894	0.8127384953547987	0.3015067156031974	0.16828898361706238	0.7846055947449787	0.31379955786229574	0.19488445717374336	0.7275737260705729	0.3833969445158809	0.05391575435448537	1.287887917709682	0.5709437590878248	0.02376594703964693	1.034990841308922	0.506552735311823	0.10896263029615302	0.8523569584640105	0.39328489015027124	0.1755909269472098	0.8160652485073777	0.3180896976064405	0.17929093050386818	0.7915007836448523	0.3143795319653383	0.17205000193411202	0.7725426562358204	0.33128021734981916	
